<svg
  xmlns="http://www.w3.org/2000/svg"
  version="1.1"
  xmlns:xlink="http://www.w3.org/1999/xlink"
  xmlns:svgjs="http://svgjs.com/svgjs"
  width="1000"
  height="1000"
>
  <rect width="1000" height="1000" rx="200" ry="200"></rect>
  <g
    transform="matrix(13.943841179648965,0,0,13.943841179648965,100.00016005769425,268.51132638377067)"
  >
    <svg
      xmlns="http://www.w3.org/2000/svg"
      version="1.1"
      xmlns:xlink="http://www.w3.org/1999/xlink"
      xmlns:svgjs="http://svgjs.com/svgjs"
      width="57.373"
      height="33.203"
    >
      <svg
        width="57.373"
        height="33.203"
        viewBox="0 0 57.373 33.203"
        xmlns="http://www.w3.org/2000/svg"
      >
        <g
          id="svgGroup"
          stroke-linecap="round"
          fill-rule="evenodd"
          font-size="9pt"
          stroke-width="0.25mm"
        >
          <path
            d="M 25.504 33.155 A 2.628 2.628 0 0 0 25.977 33.203 A 8.041 8.041 0 0 0 27.529 32.934 A 10.867 10.867 0 0 0 28.979 32.422 Q 30.566 31.738 32.227 30.615 A 29.565 29.565 0 0 0 33.475 29.721 A 35.129 35.129 0 0 0 35.571 28.003 A 50.553 50.553 0 0 0 38.867 24.805 A 6.564 6.564 0 0 0 41.49 26.15 A 8.752 8.752 0 0 0 43.701 26.416 A 11.338 11.338 0 0 0 47.216 25.837 A 15.434 15.434 0 0 0 50.024 24.585 A 23.528 23.528 0 0 0 52.358 23.064 Q 54.681 21.361 57.373 18.701 Q 56.934 18.164 56.25 17.456 Q 55.812 17.002 55.454 16.659 A 16.139 16.139 0 0 0 55.078 16.309 Q 53.094 18.14 51.397 19.503 A 41.062 41.062 0 0 1 49.463 20.972 A 10.525 10.525 0 0 1 47.556 22.061 A 7.441 7.441 0 0 1 44.58 22.705 A 6.694 6.694 0 0 1 43.67 22.647 Q 43.127 22.572 42.694 22.402 A 2.613 2.613 0 0 1 41.602 21.631 A 68.681 68.681 0 0 0 41.696 21.512 A 63.138 63.138 0 0 0 44.409 17.822 A 48.896 48.896 0 0 0 45.35 16.386 A 39.587 39.587 0 0 0 46.655 14.16 Q 47.607 12.402 48.145 10.889 A 12.307 12.307 0 0 0 48.398 10.094 Q 48.682 9.081 48.682 8.301 A 1.383 1.383 0 0 0 48.61 8.066 Q 48.493 7.769 48.219 7.376 A 7.886 7.886 0 0 0 47.925 6.982 Q 47.266 6.152 46.24 5.298 A 19.411 19.411 0 0 0 46.111 5.191 A 21.127 21.127 0 0 0 44.019 3.687 A 13.164 13.164 0 0 0 42.986 3.094 A 10.108 10.108 0 0 0 41.699 2.539 Q 40.82 3.467 39.819 5.347 A 31.471 31.471 0 0 0 39.27 6.429 A 36.424 36.424 0 0 0 37.988 9.424 A 37.298 37.298 0 0 0 36.621 13.843 A 24.981 24.981 0 0 0 36.383 14.928 Q 36.084 16.461 36.084 17.627 A 17.177 17.177 0 0 0 36.084 17.749 Q 36.091 18.658 36.194 19.47 A 10.604 10.604 0 0 0 36.523 21.094 A 58.895 58.895 0 0 1 34.326 23.73 A 27.297 27.297 0 0 1 33.418 24.71 A 21.684 21.684 0 0 1 32.104 25.952 Q 31.555 26.428 31.024 26.807 A 10.469 10.469 0 0 1 29.98 27.466 Q 28.955 28.027 28.174 28.027 Q 27.783 28.027 27.637 27.71 A 1.53 1.53 0 0 1 27.541 27.437 A 1.799 1.799 0 0 1 27.49 27.002 A 4.203 4.203 0 0 1 27.505 26.672 Q 27.535 26.292 27.628 25.739 A 24.32 24.32 0 0 1 27.734 25.146 Q 27.887 24.353 28.106 23.397 A 77.896 77.896 0 0 1 28.394 22.192 A 62.983 62.983 0 0 1 28.851 20.447 A 78.864 78.864 0 0 1 29.395 18.579 Q 29.98 16.65 30.64 14.673 A 75.244 75.244 0 0 1 32.031 10.84 A 48.252 48.252 0 0 1 32.764 9.082 A 35.904 35.904 0 0 1 33.496 7.52 Q 31.445 5.713 29.053 4.321 A 53.243 53.243 0 0 0 24.17 1.807 A 659.194 659.194 0 0 1 22.363 6.567 A 116.491 116.491 0 0 0 20.605 11.475 Q 19.775 13.965 19.092 16.504 Q 18.408 19.043 18.066 21.631 A 51.759 51.759 0 0 1 15.991 24.048 A 30.176 30.176 0 0 1 15.082 25 A 23.928 23.928 0 0 1 13.94 26.074 A 18.033 18.033 0 0 1 13.808 26.189 Q 13.346 26.587 12.904 26.912 A 10.757 10.757 0 0 1 12.036 27.49 Q 11.133 28.027 10.4 28.027 A 0.859 0.859 0 0 1 10.297 28.021 Q 9.986 27.984 9.839 27.71 A 1.39 1.39 0 0 1 9.738 27.472 A 1.541 1.541 0 0 1 9.668 27.002 A 2.425 2.425 0 0 1 9.668 26.982 Q 9.673 26.392 9.961 25 A 44.922 44.922 0 0 1 10.083 24.43 Q 10.225 23.785 10.403 23.058 A 82.831 82.831 0 0 1 10.742 21.729 A 108.435 108.435 0 0 1 11.273 19.788 A 141.711 141.711 0 0 1 11.89 17.676 Q 12.549 15.479 13.281 13.33 A 109.981 109.981 0 0 1 13.304 13.263 A 101.448 101.448 0 0 1 14.795 9.18 A 58.583 58.583 0 0 1 15.014 8.627 Q 15.34 7.815 15.658 7.097 A 33.167 33.167 0 0 1 16.309 5.713 Q 14.258 3.906 11.865 2.515 A 53.243 53.243 0 0 0 6.982 0 A 263.23 263.23 0 0 1 5.908 2.96 A 311.755 311.755 0 0 1 4.736 6.079 Q 3.516 9.277 2.466 12.646 A 72.491 72.491 0 0 0 0.708 19.409 A 35.876 35.876 0 0 0 0.532 20.308 A 31.874 31.874 0 0 0 0 26.025 A 3.469 3.469 0 0 0 0 26.051 Q 0.01 27.356 1.001 28.638 A 12.052 12.052 0 0 0 3.345 30.933 A 16.788 16.788 0 0 0 3.935 31.353 A 14.548 14.548 0 0 0 6.079 32.568 A 12.971 12.971 0 0 0 6.601 32.793 Q 7.26 33.06 7.739 33.153 A 2.455 2.455 0 0 0 8.203 33.203 Q 10.4 33.057 12.939 31.396 A 32.592 32.592 0 0 0 15.002 29.927 A 40.199 40.199 0 0 0 18.018 27.344 A 5.423 5.423 0 0 0 18.664 28.554 A 7.207 7.207 0 0 0 19.531 29.565 A 16.176 16.176 0 0 0 21.802 31.421 A 16.172 16.172 0 0 0 22.711 31.991 A 12.975 12.975 0 0 0 24.146 32.715 Q 24.934 33.051 25.504 33.155 Z"
            vector-effect="non-scaling-stroke"
          ></path>
        </g>
      </svg>
    </svg>
  </g>
  <style>
    rect {
      fill: #000000;
    }
    g {
      stroke: #ffffff;
      fill: #ffffff;
    }
    @media (prefers-color-scheme: dark) {
      rect {
        fill: #ffffff;
      }
      g {
        stroke: #000000;
        fill: #000000;
      }
    }
  </style>
</svg>
